<svg width="72" height="69" viewBox="0 0 72 69" fill="none" xmlns="http://www.w3.org/2000/svg">
<rect x="2.5" y="2.5" width="67" height="64" rx="32" stroke="#5FFF08" stroke-width="5"/>
<g clip-path="url(#clip0_3091_15686)">
<path fill-rule="evenodd" clip-rule="evenodd" d="M49.2741 23.3968C50.1255 24.1005 50.2455 25.3611 49.5417 26.2126L33.4618 45.6711L33.457 45.6769C33.0912 46.1161 32.6322 46.4683 32.1132 46.7077C31.5943 46.9473 31.0285 47.0681 30.457 47.0615C29.8761 47.0543 29.3026 46.9155 28.783 46.6557C28.2652 46.3969 27.8125 46.0243 27.4587 45.5661C27.4575 45.5645 27.4564 45.5631 27.4552 45.5615L22.4214 39.0895C21.7432 38.2176 21.9003 36.961 22.7722 36.2829C23.6441 35.6048 24.9007 35.7618 25.5788 36.6337L30.5059 42.9687L46.4583 23.6645C47.1619 22.813 48.4227 22.6932 49.2741 23.3968Z" fill="#5FFF09"/>
</g>
<defs>
<clipPath id="clip0_3091_15686">
<rect width="28" height="28" fill="white" transform="translate(22 21)"/>
</clipPath>
</defs>
</svg>
